<svg xmlns="http://www.w3.org/2000/svg"><defs><font horiz-adv-x="995"><font-face units-per-em="2048" ascent="1638" descent="-410"/><glyph unicode="ﬁ" horiz-adv-x="1107" d="M18 876v206h133v70q0 207 112 318t316 111q70 0 138.5-15t153.5-44l-40-232q-65 22-115.5 34t-118.5 12q-80 0-121-47t-41-137v-70h173v-206h-173v-876h-284v876h-133zm698-876v1082h285v-1082h-285z"/><glyph horiz-adv-x="2048"/><glyph horiz-adv-x="2048"/><glyph horiz-adv-x="449"/><glyph horiz-adv-x="16"/><glyph horiz-adv-x="16"/><glyph horiz-adv-x="449"/><glyph horiz-adv-x="449"/><glyph horiz-adv-x="449"/><glyph unicode="!" horiz-adv-x="506" d="M112 506v950h285v-950h-285zm3-506v258h280v-258h-280z"/><glyph unicode=""" horiz-adv-x="602" d="M51 1046v514h198v-263l-74-251h-124zm300 0l1 247v267h196v-263l-74-251h-123z"/><glyph unicode="#" horiz-adv-x="1034" d="M44 410v166h209l43 298h-189v166h213l61 416h172l-60-416h136l60 416h173l-60-416h186v-166h-210l-43-298h189v-166h-213l-59-410h-173l59 410h-136l-59-410h-173l59 410h-185zm382 166h136l43 298h-136z"/><glyph unicode="$" horiz-adv-x="1019" d="M79 456h284q0-135 44-193.5t115-58.5q63 0 96 49t33 128q0 84-33 133t-115 96q-194 86-285.5 183t-91.5 279q0 166 93.5 274t250.5 127v212h144v-215q149-28 236.5-148.5t87.5-313.5h-284q0 117-35 180t-92 63q-59 0-88-50t-29-130q0-76 32.5-125t117.5-97q192-91 283.5-189t91.5-277q0-171-92-275.5t-248-123.5v-199h-145v199q-161 20-266 135t-105 337z"/><glyph unicode="%" horiz-adv-x="1356" d="M90 1099v77q0 129 74.5 215t209.5 86q137 0 211-85.5t74-215.5v-77q0-130-74-214.5t-209-84.5q-136 0-211 85t-75 214zm186 0q0-57 26-96.5t74-39.5q46 0 71.5 39t25.5 97v77q0 58-26 98t-73 40-72.5-40.5-25.5-97.5v-77zm7-915l601 1138 134-74-601-1138zm417 96v77q0 128 75 214t210 86q137 0 211-85.5t74-214.5v-77q0-130-74-215t-209-85q-136 0-211.5 85t-75.5 215zm187 0q0-56 28.5-97t71.5-40q55-1 76 36t21 101v77q0 57-26 97t-73 40q-48 0-73-40t-25-97v-77z"/><glyph unicode="&" horiz-adv-x="1221" d="M59 388q0 118 57.5 203.5t175.5 178.5q-62 94-92 170.5t-30 156.5q0 171 98.5 275.5t262.5 104.5q142 0 232.5-98.5t90.5-238.5q0-97-43.5-177.5t-117.5-139.5l-81-65 230-304 6 1q27 52 42.5 117.5t15.5 138.5h208q0-138-29.5-252.5t-92.5-203.5l194-255h-322l-64 84q-75-53-152.5-79t-166.5-26q-193 0-307.5 113t-114.5 296zm286 18q0-87 43.5-143.5t109.5-56.5q44 0 88 12t85 37l-259 344-7-6q-35-48-47.5-93.5t-12.5-93.5zm78 694q0-41 17.5-84t52.5-94l59 44q50 36 67 73.5t17 82.5q0 50-29.5 88.5t-76.5 38.5q-52 0-79.5-42.5t-27.5-106.5z"/><glyph unicode="'" horiz-adv-x="302" d="M52 1275v285h190v-272l-66-281h-123z"/><glyph unicode="(" horiz-adv-x="633" d="M109 567v24q0 384 131 658.5t297 356.5h6l50-143q-105-98-177.5-317.5t-72.5-552.5v-28q0-333 72-552t178-319l-50-141h-6q-166 82-297 355t-131 659z"/><glyph unicode=")" horiz-adv-x="632" d="M38-306q104 98 177 318t73 553v28q0 332-73.5 553t-176.5 319l52 141h6q169-80 306-361t137-654v-24q0-375-137-654.5t-306-359.5h-6z"/><glyph unicode="*" horiz-adv-x="825" d="M31 1058l53 173 260-127-19 352h178l-19-358 253 125 53-175-268-93 176-269-144-107-149 294-150-285-143 103 183 275z"/><glyph unicode="+" d="M54 556v254h307v396h269v-396h306v-254h-306v-410h-269v410h-307z"/><glyph unicode="," horiz-adv-x="459" d="M47-309l59 319v231h252v-239l-145-311h-166z"/><glyph unicode="-" horiz-adv-x="748" d="M120 511v228h497v-228h-497z"/><glyph unicode="." horiz-adv-x="543" d="M124 0v258h281v-258h-281z"/><glyph unicode="/" horiz-adv-x="646" d="M-12-125l432 1581h206l-434-1581h-204z"/><glyph unicode="0" horiz-adv-x="1014" d="M80 571v313q0 290 115.5 441.5t310.5 151.5 311-151.5 116-441.5v-313q0-291-115.5-441.5t-309.5-150.5q-196 0-312 150.5t-116 441.5zm284-23q0-178 37-259.5t104-75.5h6q66-6 102 75t36 260v361q0 176-37 257t-103 76h-6q-67 5-103-76t-36-257v-361z"/><glyph unicode="1" horiz-adv-x="1019" d="M128 1153v205l554 99v-1457h-284v1159z"/><glyph unicode="2" horiz-adv-x="1019" d="M64 1004q-4 198 112 335.5t312 137.5q200 0 312-116t112-316q0-134-62.5-248t-208.5-298l-190-272h492v-227h-860v193l397 503q79 112 113.5 195t34.5 151q0 93-36 150t-104 57q-70 0-107.5-69t-37.5-181h-277z"/><glyph unicode="3" horiz-adv-x="1019" d="M58 394l2 6h276q0-84 44-139t109-55q74 0 117.5 55.5t43.5 148.5q0 116-42.5 169.5t-125.5 53.5h-142v220h142q76 0 113 54t37 151q0 85-37 138t-106 53q-56 0-96.5-47t-40.5-123h-275l-2 6q-5 173 113.5 282.5t292.5 109.5q198 0 316-108.5t118-306.5q0-99-51-183.5t-140-131.5q102-42 156-130.5t54-210.5q0-199-127.5-313t-326.5-114q-175 0-301 107.5t-121 307.5z"/><glyph unicode="4" horiz-adv-x="1019" d="M53 496l497 960h284v-910h126v-228h-126v-318h-283v318h-483zm258 50h240v503l-6 1-15-27z"/><glyph unicode="5" horiz-adv-x="1019" d="M86 393l2 5 276 15q0-98 40-152.5t105-54.5q75 0 109 71.5t34 187.5q0 129-38 204t-116 75q-59 0-91-32t-44-85l-253 17 72 812h712v-233h-480l-31-343q31 31 77.5 51.5t97.5 22.5q182 3 279.5-125.5t97.5-361.5q0-208-110.5-348t-315.5-140q-174 0-300.5 111.5t-122.5 302.5z"/><glyph unicode="6" horiz-adv-x="1019" d="M80 563v300q0 283 144.5 448.5t369.5 165.5q71 0 129.5-15.5t119.5-46.5l-48-215q-53 23-97.5 34.5t-102.5 11.5q-104 0-166.5-94.5t-59.5-267.5l4-4q39 45 100 71t136 26q165 0 257.5-139t92.5-356q0-218-119-360.5t-307-142.5q-202 0-327.5 156t-125.5 428zm284-3q0-171 45.5-263t123.5-92q64 0 103 81.5t39 195.5q0 121-40 196t-103 75q-59 0-101-20.5t-67-57.5v-115z"/><glyph unicode="7" horiz-adv-x="1019" d="M55 1228v228h886v-228q-197-253-261.5-486.5t-93.5-601.5l-13-140h-285l14 140q27 327 116.5 598t250.5 490h-614z"/><glyph unicode="8" horiz-adv-x="1019" d="M83 398q0 117 56 207.5t155 139.5q-87 47-136 131t-49 194q0 193 110 300t290 107 290.5-107 110.5-300q0-110-49.5-194t-135.5-131q98-50 154-140t56-207q0-203-117-311t-308-108-309 108.5-118 310.5zm285 21q0-100 38-156.5t104-56.5q64 0 102.5 56.5t38.5 156.5q0 98-39 155.5t-103 57.5q-65 0-103-57.5t-38-155.5zm27 637q0-92 29.5-144.5t85.5-52.5 85 52 29 145q0 89-29.5 141t-85.5 52-85-51-29-142z"/><glyph unicode="9" horiz-adv-x="1019" d="M75 957q0 219 120.5 369.5t304.5 150.5q191 0 311-154.5t120-430.5v-356q0-256-136.5-406.5t-345.5-150.5q-62 0-131 16t-128 46l32 212q55-24 108.5-35.5t118.5-11.5q86 0 142.5 82t56.5 230v56q-40-58-93.5-88t-113.5-30q-171 0-268.5 134.5t-97.5 366.5zm283 0q0-131 35-209t102-78q50 0 88.5 24.5t64.5 66.5v166q0 158-40 239t-105 77h-6q-61 4-100-82.5t-39-203.5z"/><glyph unicode=":" horiz-adv-x="540" d="M127 0v258h281v-258h-281zm0 823v258h281v-258h-281z"/><glyph unicode=";" horiz-adv-x="516" d="M89-309l59 319v231h252v-239l-145-311h-166zm29 1132v258h281v-258h-281z"/><glyph unicode="<" horiz-adv-x="898" d="M48 430v230l739 364v-270l-482-209v-6l482-203v-271z"/><glyph unicode="=" horiz-adv-x="1023" d="M120 323v229h772v-229h-772zm0 433v228h772v-228h-772z"/><glyph unicode=">" horiz-adv-x="909" d="M106 65v269l487 209v6l-487 206v269l745-364v-230z"/><glyph unicode="?" horiz-adv-x="898" d="M25 1075q-3 197 111 299.5t299 102.5q200 0 314.5-115.5t114.5-312.5q0-125-64-231.5t-160-178.5q-51-46-68.5-94.5t-17.5-131.5h-284q1 136 39.5 202t147.5 159q56 55 89 121.5t33 152.5q0 92-37.5 146t-106.5 54q-53 0-92-46.5t-40-132.5h-276zm246-1075v247h281v-247h-281z"/><glyph unicode="@" horiz-adv-x="1615" d="M56 478q15 428 226 682t558 254q342 0 526-241t170-657q-8-219-115.5-378t-321.5-159q-72 0-123.5 44.5t-72.5 126.5q-38-85-93.5-126.5t-129.5-41.5q-128 0-196.5 119t-50.5 315q22 252 127.5 404t255.5 152q106 0 171-26t142-80l-3-4h5l-46-569q-5-97 10-132t41-28l6-1q96-5 154.5 105t66.5 279q13 350-119 546.5t-408 196.5q-266 0-422-210.5t-168-570.5q-16-352 126-557.5t407-205.5q75 0 155 19.5t138 49.5l35-148q-60-42-151.5-65.5t-179.5-23.5q-353 0-544.5 249t-175.5 682zm593-62q-8-127 15.5-194t75.5-67q46 0 83.5 28.5t66.5 103.5v6l39 496q-19 5-37.5 8.5t-37.5 3.5q-95 0-142.5-95t-62.5-290z"/><glyph unicode="A" horiz-adv-x="1134" d="M16 0l410 1456h296l409-1456h-287l-79 309h-384l-78-309h-287zm423 538h268l-131 515h-6z"/><glyph unicode="B" horiz-adv-x="1136" d="M110 0v1456h429q225 0 351.5-100t126.5-298q0-104-46-184.5t-138-120.5q115-27 170-117t55-211q0-209-119.5-317t-342.5-108h-486zm285 227h201q90 0 134.5 50t44.5 149q0 104-38 160t-122 56h-220v-415zm0 614h157q87 2 133.5 50.5t46.5 139.5q0 102-48 149.5t-145 47.5h-144v-387z"/><glyph unicode="C" horiz-adv-x="1088" d="M74 510v435q0 253 130.5 392.5t349.5 139.5q232 0 350.5-124t122.5-367l-3-6h-274q1 17 1 33 0 118-40 173-45 63-157 63-96 0-147-75t-51-227v-437q0-154 54.5-229t159.5-75q104 0 144 60 36 53 36 172 0 15-1 31h274l3-6v-8q0-234-114-354-116-122-342-122t-361 138.5-135 392.5z"/><glyph unicode="D" horiz-adv-x="1151" d="M110 0v1456h440q224 0 370-169.5t146-436.5v-245q0-267-146-436t-370-169h-440zm285 227h139q119 0 183.5 103.5t64.5 274.5v247q0 170-64.5 273t-183.5 103h-139v-1001z"/><glyph unicode="E" horiz-adv-x="1008" d="M110 0v1456h858v-228h-573v-362h489v-227h-489v-412h575v-227h-860z"/><glyph unicode="F" horiz-adv-x="1016" d="M110 0v1456h866v-228h-581v-396h494v-227h-494v-605h-285z"/><glyph unicode="G" horiz-adv-x="1179" d="M81 506v444q0 251 136.5 389t361.5 138q242 0 363-118.5t126-339.5l-2-6h-267q-3 123-54.5 179.5t-157.5 56.5q-104 0-163-73.5t-59-223.5v-446q0-153 59.5-226.5t173.5-73.5q85 0 125.5 23t66.5 68v261h-192v200h476v-542q-59-94-177-165.5t-299-71.5q-234 0-375.5 137t-141.5 390z"/><glyph unicode="H" horiz-adv-x="1241" d="M110 0v1456h285v-626h452v626h284v-1456h-284v603h-452v-603h-285z"/><glyph unicode="I" horiz-adv-x="534" d="M125 0v1456h283v-1456h-283z"/><glyph unicode="J" horiz-adv-x="1015" d="M57 421l3 6h277q0-115 40.5-168t104.5-53q58 0 99.5 63t41.5 175v1012h283v-1012q0-214-120.5-339.5t-303.5-125.5q-198 0-314 112-111 108-111 316v14z"/><glyph unicode="K" horiz-adv-x="1137" d="M110 0v1456h285v-592h92l284 592h349l-397-665 430-791h-346l-288 605h-124v-605h-285z"/><glyph unicode="L" horiz-adv-x="959" d="M110 0v1456h285v-1229h532v-227h-817z"/><glyph unicode="M" horiz-adv-x="1481" d="M105 0v1456h369l261-1069h6l264 1069h371v-1456h-283v423l24 566-6 1-278-990h-189l-275 982-6-1 25-558v-423h-283z"/><glyph unicode="N" horiz-adv-x="1241" d="M110 0v1456h285l445-930 6 2v928h283v-1456h-283l-445 931-6-2v-929h-285z"/><glyph unicode="O" horiz-adv-x="1166" d="M75 523v408q0 255 138 400.5t368 145.5 370-145.5 140-400.5v-408q0-256-139-400t-370-144-369 144-138 400zm282 0q0-158 57-237t168-79q110 0 168 79t58 237v410q0 156-58 235.5t-169 79.5q-112 0-168-79t-56-236v-410z"/><glyph unicode="P" horiz-adv-x="1158" d="M110 0v1456h506q218 0 344-129t126-338q0-210-126.5-338.5t-343.5-128.5h-221v-522h-285zm285 750h221q91 0 139 67t48 170q0 104-47.5 172.5t-139.5 68.5h-221v-478z"/><glyph unicode="Q" horiz-adv-x="1241" d="M81 523v408q0 255 138 400.5t368 145.5 370-145.5 140-400.5v-408q0-113-29-206t-82-161l216-237-176-150-224 249q-49-19-102.5-29t-111.5-10q-231 0-369 144t-138 400zm282 0q0-158 57-237t168-79q110 0 168 79t58 237v410q0 156-58 235.5t-169 79.5q-112 0-168-79t-56-236v-410z"/><glyph unicode="R" horiz-adv-x="1162" d="M111 0v1455h475q215 0 337.5-113.5t122.5-315.5q0-114-51-196.5t-149-131.5q112-38 161.5-126t49.5-220v-103q0-60 14-128.5t49-99.5v-21h-294q-35 32-44 104t-9 147v99q0 109-44.5 169t-127.5 60h-206v-579h-284zm284 806h190q87 0 132 53t45 151q0 100-45 159t-131 59h-191v-422z"/><glyph unicode="S" horiz-adv-x="1109" d="M72 449l2 6h277q0-135 57-194t172-59q90 0 133.5 48t43.5 130q0 85-44 134.5t-155 97.5q-227 79-340.5 179.5t-113.5 281.5q0 179 132 291.5t337 112.5q208 1 338-125 126-122 126-306v-11l-2-6h-276q0 100-50 162t-141 62q-85 0-132.5-51.5t-47.5-129.5q0-72 53-118.5t184-103.5q207-70 311.5-177.5t104.5-290.5q0-189-126-296t-335-107q-208-1-360 121-148 118-148 335v14z"/><glyph unicode="T" horiz-adv-x="994" d="M29 1228v228h938v-228h-328v-1228h-284v1228h-326z"/><glyph unicode="U" horiz-adv-x="1176" d="M94 465v991h284v-991q0-133 55-196t155-63q103 0 157 60t54 199v991h283v-991q0-233-136.5-359.5t-357.5-126.5-357.5 127-136.5 359z"/><glyph unicode="V" horiz-adv-x="1129" d="M9 1456h299l241-1084 11-56h6l11 53 243 1087h299l-407-1456h-296z"/><glyph unicode="W" horiz-adv-x="1548" d="M21 1456h276l157-929h6l210 929h204l213-929h6l157 929h276l-281-1456h-265l-205 892h-6l-203-892h-264z"/><glyph unicode="X" horiz-adv-x="1127" d="M27 0l362 734-353 722h327l195-509h6l198 509h329l-353-722 377-734h-343l-204 520h-6l-204-520h-331z"/><glyph unicode="Y" horiz-adv-x="1124" d="M7 1456h311l240-624h6l243 624h309l-416-938v-518h-284v536z"/><glyph unicode="Z" horiz-adv-x="998" d="M60 1229v227h876v-138l-550-1091h559v-227h-879v143l546 1086h-552z"/><glyph unicode="[" horiz-adv-x="530" d="M106-339v2034h399v-217h-112v-1601h112v-216h-399z"/><glyph unicode="\" horiz-adv-x="758" d="M0 1456h280l515-1581h-282z"/><glyph unicode="]" horiz-adv-x="530" d="M21-123h114v1601h-114v217h399v-2034h-399v216z"/><glyph unicode="^" horiz-adv-x="785" d="M38 729l253 727h206l253-727h-219l-134 422-2 8h-6l-1-8-131-422h-219z"/><glyph unicode="_" horiz-adv-x="793" d="M8 0h775v-220h-775v220z"/><glyph unicode="`" horiz-adv-x="629" d="M73 1471l3 6h298l175-266h-230z"/><glyph unicode="a" horiz-adv-x="944" d="M57 302q0 159 102.5 247t304.5 88h107v88q0 79-28.5 121.5t-85.5 42.5q-48 0-72-34t-24-99l-275 1-3 6v12q1 133 105 228 110 99 288 99 169 0 274.5-98.5t105.5-280.5v-438q0-80 11-149t34-136h-282q-12 27-21.5 59t-14.5 65q-40-66-97.5-105.5t-133.5-39.5q-134 0-214.5 88t-80.5 235zm284 13q0-54 25-88t68-34 79.5 23 57.5 59v199h-107q-65 0-94-45t-29-114z"/><glyph unicode="b" d="M92 0v1560h284v-570q38 54 89.5 83t116.5 29q176 0 267-135.5t91-361.5v-147q0-219-90.5-349t-265.5-130q-76 0-132.5 35t-96.5 102l-17-116h-246zm284 281q20-37 53.5-55.5t80.5-18.5q86 0 116.5 63.5t30.5 187.5v147q0 127-31.5 198t-116.5 71q-46 0-79-23t-54-65v-505z"/><glyph unicode="c" horiz-adv-x="910" d="M52 470v139q0 216 112 354.5t321 138.5q175 0 279-113 101-110 101-294v-11l-2-5h-259q0 88-29.5 141.5t-89.5 53.5q-85 0-117-72t-32-193v-139q0-124 32-194t119-70q58 0 87.5 43t29.5 124h258l3-6v-9q-1-164-105-270-108-109-273-109-210 0-322.5 137t-112.5 354z"/><glyph unicode="d" d="M54 514v21q0 255 94 411t265 156q63 0 114-30t91-86v574h284v-1560h-247l-19 118q-42-68-97.5-103.5t-126.5-35.5q-171 0-264.5 146.5t-93.5 388.5zm284 0q0-145 33.5-226t113.5-81q44 0 77 20.5t56 59.5v492q-23 45-56 70t-75 25q-79 0-114-93t-35-246v-21z"/><glyph unicode="e" horiz-adv-x="938" d="M69 451v152q0 219 111.5 359t308.5 140q190 0 294-127t104-346v-174h-535v-4q0-107 48.5-176t146.5-69q80 0 130 18t119 60l72-181q-56-54-149.5-89t-205.5-35q-204 0-324 134t-120 338zm284 194h255v40q0 90-28 139.5t-91 49.5q-68 0-100-62t-36-167z"/><glyph unicode="f" horiz-adv-x="647" d="M23 876v206h133v120q0 182 94 280.5t264 98.5q33 0 66-5.5t76-15.5l-24-218q-20 4-38.5 7t-43.5 3q-54 0-82-39t-28-111v-120h174v-206h-174v-876h-284v876h-133z"/><glyph unicode="g" horiz-adv-x="994" d="M54 458v133q0 229 94.5 370t266.5 141q72 0 127-36.5t96-104.5l18 121h247v-1061q0-213-123.5-335.5t-338.5-122.5q-70 0-149 22.5t-147 60.5l50 219q57-32 116-48t128-16q90 0 135 56.5t45 164.5v62q-40-52-91-78.5t-115-26.5q-171 0-265 131.5t-94 347.5zm284 0q0-118 34-184.5t114-66.5q44 0 77.5 18t55.5 53v512q-22 40-54.5 62t-76.5 22q-80 0-115-77.5t-35-205.5v-133z"/><glyph unicode="h" d="M84 0v1560h284v-607q42 71 101 110t130 39q144 0 226-114.5t82-353.5v-634h-285v636q0 134-31.5 186t-98.5 52q-40 0-71-17.5t-53-48.5v-808h-284z"/><glyph unicode="i" horiz-adv-x="495" d="M105 0v1082h284v-1082h-284zm0 1343v217h284v-217h-284z"/><glyph unicode="j" horiz-adv-x="487" d="M-73-419l12 223q22-6 40-9t40-3q44 0 67.5 44t23.5 131v1115h285v-1115q0-194-90-299t-250-105q-35 0-64 4.5t-64 13.5zm178 1762v217h284v-217h-284z"/><glyph unicode="k" horiz-adv-x="963" d="M92 0v1560h284v-886h47l183 408h327l-282-487 329-595h-325l-227 450h-52v-450h-284z"/><glyph unicode="l" horiz-adv-x="495" d="M105 0v1560h284v-1560h-284z"/><glyph unicode="m" horiz-adv-x="1507" d="M93 0v1082h265l11-138q43 76 108 117t149 41q82 0 143-43.5t93-132.5q42 84 108 130t154 46q134 0 211.5-110.5t77.5-337.5v-654h-285v654q0 125-27 172.5t-84 47.5q-41 0-73-24t-53-66q1-19 2-37.5t1-38.5v-708h-283v654q0 124-27.5 172t-85.5 48q-39 0-69.5-19.5t-52.5-54.5v-800h-283z"/><glyph unicode="n" d="M87 0v1082h265l12-149q45 80 110.5 124.5t144.5 44.5q135 0 212.5-104t77.5-327v-671h-285v671q0 112-31.5 157.5t-97.5 45.5q-38 0-70-20t-54-55v-799h-284z"/><glyph unicode="o" d="M58 473v134q0 218 115.5 356.5t323.5 138.5 324-138.5 116-356.5v-134q0-220-116-357t-323-137q-209 0-324.5 137t-115.5 357zm283 0q0-125 35-196t122-71q84 0 119.5 71.5t35.5 195.5v134q0 122-35.5 194.5t-120.5 72.5-120.5-73-35.5-194v-134z"/><glyph unicode="p" d="M92-416v1498h263l10-107q39 61 92.5 94t123.5 33q171 0 265-140.5t94-370.5v-133q0-216-94-347.5t-263-131.5q-66 0-117.5 26.5t-89.5 78.5v-500h-284zm284 694q20-36 52.5-54t79.5-18q79 0 113.5 67t34.5 185v133q0 128-36 205.5t-113 77.5q-45 0-78-22.5t-53-63.5v-510z"/><glyph unicode="q" d="M54 458v133q0 229 94 370t265 141q71 0 125.5-35.5t95.5-101.5l20 117h247v-1498h-285v499q-39-51-89.5-77.5t-114.5-26.5q-170 0-264 131.5t-94 347.5zm284 0q0-119 33.5-185.5t113.5-66.5q44 0 77 18t54 53v515q-21 39-53 60.5t-76 21.5q-79 0-114-77.5t-35-205.5v-133z"/><glyph unicode="r" horiz-adv-x="655" d="M92 0v1082h265l11-145 5-2q26 78 72.5 122.5t108.5 44.5q19 0 40.5-3.5t37.5-8.5l-29-267-107 3q-45 0-74.5-22t-45.5-62v-742h-284z"/><glyph unicode="s" horiz-adv-x="888" d="M39 334l2 6h260q2-86 40-124t105-38q57 0 87 28t30 77q0 46-36 79.5t-138 82.5q-163 61-244.5 138t-81.5 200q0 132 104.5 225.5t276.5 93.5q180 0 287-96 103-93 103-234v-11l-3-6h-274q0 68-28 108t-86 40q-46 0-78-31t-32-75q0-48 32-77.5t139-80.5q170-58 252-137.5t82-208.5q0-138-110-226t-289-88q-187 0-296 109-104 104-104 234v12z"/><glyph unicode="t" horiz-adv-x="648" d="M18 876v206h128v269h284v-269h150v-206h-150v-543q0-66 19-94.5t52-28.5q26 0 44 2.5t40 8.5l22-216q-45-14-86-20t-93-6q-137 0-209.5 84.5t-72.5 268.5v544h-128z"/><glyph unicode="u" d="M85 428v654h284v-656q0-115 28-167t83-52q47 0 82.5 17.5t60.5 51.5v806h285v-1082h-250l-17 125q-44-71-106.5-108.5t-141.5-37.5q-145 0-226.5 109.5t-81.5 339.5z"/><glyph unicode="v" horiz-adv-x="909" d="M15 1082h297l127-674 13-82h6l14 82 125 674h297l-300-1082h-278z"/><glyph unicode="w" horiz-adv-x="1280" d="M24 1082h265l101-616h6l151 616h184l151-614 6 1 101 613h263l-222-1082h-237l-151 583h-6l-151-583h-237z"/><glyph unicode="x" horiz-adv-x="909" d="M16 0l275 547-268 535h319l109-341h6l114 341h320l-268-535 276-547h-319l-119 351h-6l-119-351h-320z"/><glyph unicode="y" horiz-adv-x="909" d="M5 1082h305l130-638 2-11 158 649h304l-365-1245q-41-117-109.5-195.5t-209.5-78.5q-35 0-62 6t-72 18l33 212q17-3 24.5-4.5t16.5-1.5q62 0 93.5 32.5t45.5 85.5l25 80z"/><glyph unicode="z" horiz-adv-x="883" d="M65 0v169l412 685h-400v228h730v-165l-416-690h423v-227h-749z"/><glyph unicode="{" horiz-adv-x="586" d="M44 514v202q69 0 103 55t34 154v207q0 171 71 290.5t238 174.5l53-157q-62-31-86-109.5t-24-198.5v-207q0-104-41-184.5t-124-125.5q82-46 123.5-126.5t41.5-183.5v-206q0-120 23.5-198t86.5-109l-53-158q-167 55-238 175t-71 290v206q0 98-34 153.5t-103 55.5z"/><glyph unicode="|" horiz-adv-x="467" d="M153-270v1726h163v-1726h-163z"/><glyph unicode="}" horiz-adv-x="586" d="M42-208q62 31 87 109t25 198v206q0 104 41 184.5t126 125.5q-85 44-126 124.5t-41 185.5v207q0 120-25 198.5t-87 109.5l53 157q166-55 237.5-174.5t71.5-290.5v-207q0-100 33.5-154.5t105.5-54.5v-202q-72 0-105.5-55t-33.5-154v-206q0-170-71.5-290t-237.5-175z"/><glyph unicode="~" horiz-adv-x="1121" d="M89 444q0 165 74.5 273t193.5 108q69 0 132.5-33.5t125.5-98.5q37-46 66-65.5t63-19.5q37 0 64.5 52.5t27.5 128.5l194-28q0-164-76.5-273.5t-193.5-109.5q-71 0-131.5 32t-124.5 102q-40 45-68 64.5t-63 19.5q-38 0-64.5-51.5t-26.5-126.5z"/><glyph unicode="¡" horiz-adv-x="534" d="M125-374v949h285v-949h-285zm3 1195v261h280v-261h-280z"/><glyph unicode="¢" horiz-adv-x="1031" d="M89 470v139q0 189 87.5 321t252.5 163v225h184v-225q136-29 215-137.5t79-276.5h-266q0 88-29.5 141.5t-89.5 53.5q-85 0-117-72t-32-193v-139q0-124 32-194t119-70q58 0 87.5 43t29.5 124h266q0-149-81-252.5t-213-131.5v-234h-184v233q-166 30-253 161t-87 321z"/><glyph unicode="£" horiz-adv-x="1055" d="M92 591v225h122l-7 209q0 211 105 331.5t282 120.5q188 0 293-113t102-297l-3-6h-276q0 96-34 142t-83 46q-48 0-74.5-58.5t-26.5-165.5l8-209h280v-225h-270l3-82q0-78-29.5-151t-83.5-131h600v-227h-855v227h8q36 12 54 94.5t18 171.5l-3 98h-130z"/><glyph unicode="¤" horiz-adv-x="1257" d="M74 110l122 140q-45 76-68.5 167t-23.5 191q0 103 25.5 196.5t73.5 172.5l-129 150 130 137 123-142q65 54 142.5 83t161.5 29 161.5-30 143.5-84l125 145 132-138-133-153q46-78 71.5-171.5t25.5-194.5q0-99-23.5-189t-66.5-166l126-143-132-137-114 131q-67-60-147.5-92t-168.5-32-168 31.5-147 90.5l-112-128zm202 498q0-189 103-318.5t252-129.5q147 0 250 129.5t103 318.5q0 187-103 316.5t-250 129.5q-149 0-252-129.5t-103-316.5z"/><glyph unicode="¥" horiz-adv-x="1082" d="M22 1456h310l207-561h6l206 561h310l-318-719h189v-200h-253v-111h253v-198h-253v-228h-283v228h-271v198h271v111h-271v200h215z"/><glyph unicode="¦" horiz-adv-x="467" d="M108-270v791h251v-791h-251zm0 968v758h251v-758h-251z"/><glyph unicode="§" horiz-adv-x="1115" d="M84 533q0 88 36.5 156.5t106.5 113.5q-63 51-94.5 122t-31.5 171q0 172 123 276.5t329 104.5q210 0 329-111.5t115-310.5l-2-6h-276q0 87-43.5 143.5t-122.5 56.5q-84 0-125-42.5t-41-108.5q0-74 43-112.5t181-85.5q210-63 309-155.5t99-262.5q0-90-37-157.5t-105-110.5q62-51 93.5-122t31.5-171q0-177-121.5-277t-326.5-100q-201 0-335 99t-129 317l2 6h276q0-105 52.5-149.5t133.5-44.5q78 0 121 40.5t43 107.5q0 66-47.5 106t-180.5 89q-208 64-307 156.5t-99 261.5zm284 31q0-80 41.5-121t177.5-94q57-19 67-22.5l30-10.5q27 23 41.5 58t14.5 79q0 71-47.5 116t-177.5 97q-25 7-49.5 16t-49.5 19q-25-23-36.5-58t-11.5-79z"/><glyph unicode="¨" horiz-adv-x="1000" d="M143 1258v198h251v-198h-251zm449 0v198h250v-198h-250z"/><glyph unicode="©" horiz-adv-x="1433" d="M82 729q0 315 182.5 531t444.5 216q261 0 444.5-216t183.5-531q0-316-184-533t-444-217q-261 0-444 217t-183 533zm111 0q0-266 150.5-448.5t365.5-181.5q214-1 364.5 181.5t150.5 448.5q0 264-150.5 445.5t-364.5 181.5q-215 0-365.5-181.5t-150.5-445.5zm193-60v119q0 173 83.5 280t226.5 107q140 0 219-79.5t76-228.5l-3-6h-136q0 96-39 140.5t-117 45.5q-81-1-124-72t-43-186v-120q0-118 43-188.5t124-70.5q78 0 116.5 43.5t38.5 142.5h136l3-6q3-151-75.5-229.5t-218.5-78.5q-143 0-226.5 106t-83.5 281z"/><glyph unicode="ª" horiz-adv-x="785" d="M98 920q0 109 72.5 169t212.5 60h106v53q0 65-22.5 99.5t-66.5 34.5q-51 0-79-27.5t-28-78.5l-150 13-2 6q-5 98 67.5 163t191.5 65q114 0 182-71.5t68-204.5v-314q0-51 5-95t17-86h-162q-7 23-11.5 47t-6.5 48q-27-48-73-78.5t-110-30.5q-100 0-155.5 61.5t-55.5 166.5zm160 4q0-46 22.5-70.5t68.5-24.5q39 0 82 30t58 66v112h-105q-59 0-92.5-33.5t-33.5-79.5z"/><glyph unicode="«" horiz-adv-x="904" d="M55 507v19l233 389h176l-195-399 195-397h-176zm352 0v19l233 389h176l-195-399 195-397h-176z"/><glyph unicode="¬" horiz-adv-x="972" d="M115 638v163h710v-426h-183v263h-527z"/><glyph unicode="­" horiz-adv-x="748" d="M120 511v228h497v-228h-497z"/><glyph unicode="®" horiz-adv-x="1433" d="M82 729q0 315 183 531t445 216q260 0 443.5-216t183.5-531q0-316-183.5-533t-443.5-217q-262 0-445 217t-183 533zm112 0q0-266 150.5-448.5t365.5-181.5q214-1 364 181.5t150 448.5q0 264-150 445.5t-364 181.5q-215 0-365.5-181.5t-150.5-445.5zm251-413v850h251q134 0 212-68t78-193q0-58-26-101.5t-76-74.5q53-30 77-84.5t24-129.5v-56q0-42 3-74t11-53v-16h-143q-8 21-9.5 61.5t-1.5 82.5v54q0 73-29.5 107t-94.5 34h-136v-339h-140zm140 467h112q64 0 107.5 31.5t43.5 89.5q0 74-34 104t-118 30h-111v-255z"/><glyph unicode="¯" horiz-adv-x="949" d="M146 1297v160h654v-160h-654z"/><glyph unicode="°" horiz-adv-x="725" d="M117 1203q0 112 72.5 193t173.5 81q99 0 170.5-81t71.5-193q0-113-71-192t-171-79q-102 0-174 79t-72 192zm138 0q0-55 31.5-92t76.5-37q43 0 73.5 36.5t30.5 92.5-30.5 94-73.5 38q-45 0-76.5-38.5t-31.5-93.5z"/><glyph unicode="±" horiz-adv-x="992" d="M87 721v235h281v361h250v-361h279v-235h-279v-382h-250v382h-281zm11-714v230h705v-230h-705z"/><glyph unicode="²" horiz-adv-x="748" d="M100 1221q-5 107 71.5 182.5t205.5 75.5q126 0 194.5-64.5t68.5-182.5q0-83-48.5-149t-155.5-163l-79-96 2-5h286v-152h-539v152l262 254q47 49 60 82.5t13 77.5q0 41-16.5 67t-53.5 26q-40 0-59.5-30.5t-19.5-80.5h-190z"/><glyph unicode="³" horiz-adv-x="740" d="M85 895l2 6h191q0-44 23-69t69-25q39 0 64.5 24.5t25.5 70.5q0 51-27.5 79t-78.5 28h-91v127h91q48 0 70.5 25t22.5 73q0 39-20.5 65t-60.5 26q-39 0-58.5-22.5t-19.5-55.5h-189l-2 6q-6 102 70.5 163.5t193.5 61.5q131 0 208-59.5t77-169.5q0-55-30.5-100.5t-83.5-71.5q60-24 93-71.5t33-115.5q0-112-77-173.5t-209-61.5q-130 0-211.5 63t-75.5 177z"/><glyph unicode="´" horiz-adv-x="683" d="M100 1212l176 266h299l3-6-249-260h-229z"/><glyph unicode="µ" horiz-adv-x="1113" d="M120-416v1498h285v-637q1-137 33.5-186.5t100.5-49.5q52 0 88.5 24t59.5 70v779h284v-1082h-267l-4 51q-35-36-78-54t-93-18q-36 0-67 9t-57 26v-430h-285z"/><glyph unicode="¶" horiz-adv-x="951" d="M56 988q0 207 109.5 337.5t306.5 130.5h351v-1456h-286v520h-65q-197 0-306.5 129.5t-109.5 338.5z"/><glyph unicode="·" horiz-adv-x="566" d="M140 560v262h278v-262h-278z"/><glyph unicode="¸" horiz-adv-x="493" d="M83-134l27 141h213l-9-59q51-11 86.5-52.5t35.5-120.5q0-108-80.5-172.5t-227.5-64.5l-6 163q34 0 53.5 20.5t19.5 63.5q0 42-25.5 59t-86.5 22z"/><glyph unicode="¹" horiz-adv-x="513" d="M102 1298v156l303 23v-812h-200v634z"/><glyph unicode="º" horiz-adv-x="811" d="M104 1027v115q0 148 81 241.5t217 93.5 216.5-93.5 80.5-241.5v-115q0-150-80.5-242.5t-215.5-92.5q-137 0-218 92.5t-81 242.5zm161 0q0-89 35-142.5t103-53.5q65 0 100 53.5t35 142.5v115q0 85-35 139.5t-101 54.5q-67 0-102-54.5t-35-139.5v-115z"/><glyph unicode="»" horiz-adv-x="905" d="M60 152l195 398-195 399h176l233-389v-19l-233-389h-176zm362 0l195 398-195 399h176l233-389v-19l-233-389h-176z"/><glyph unicode="¼" horiz-adv-x="1260" d="M99 1297v156l303 23v-812h-200v634zm100-1105l601 1138 134-74-601-1138zm394 72l356 534v3h200v-507h75v-154h-75v-140h-200v140h-343zm201 30h155v253l-6 2-7-12z"/><glyph unicode="½" horiz-adv-x="1317" d="M82 1297v156l303 23v-812h-200v634zm110-1105l601 1138 134-74-601-1138zm501 362q-5 107 71.5 182.5t205.5 75.5q126 0 194.5-64.5t68.5-182.5q0-83-48.5-149t-155.5-163l-79-96 2-5h286v-152h-539v152l262 254q47 49 60 82.5t13 77.5q0 41-16.5 67t-53.5 26q-40 0-59.5-30.5t-19.5-80.5h-190z"/><glyph unicode="¾" horiz-adv-x="1452" d="M71 896l2 6h191q0-44 23-69t69-25q39 0 64.5 24.5t25.5 70.5q0 51-27.5 79t-78.5 28h-91v127h91q48 0 70.5 25t22.5 73q0 39-20.5 65t-60.5 26q-39 0-58.5-22.5t-19.5-55.5h-189l-2 6q-6 102 70.5 163.5t193.5 61.5q131 0 208-59.5t77-169.5q0-55-30.5-100.5t-83.5-71.5q60-24 93-71.5t33-115.5q0-112-77-173.5t-209-61.5q-130 0-211.5 63t-75.5 177zm313-704l601 1138 134-74-601-1138zm363 72l356 534v3h200v-507h75v-154h-75v-140h-200v140h-343zm201 30h155v253l-6 2-7-12z"/><glyph unicode="¿" horiz-adv-x="909" d="M63 32q0 125 62.5 231t159.5 179q51 44 69 92.5t18 133.5h284q-2-137-41-203t-147-158q-57-57-89.5-123t-32.5-151q0-91 37-144.5t107-53.5q52 0 91.5 46t41.5 131h277l2-6q1-196-113.5-298t-298.5-102q-200 0-313.5 115t-113.5 311zm310 802v248h283v-248h-283z"/><glyph unicode="À" horiz-adv-x="1134" d="M16 0l410 1456h296l409-1456h-287l-79 309h-384l-78-309h-287zm227 1819l3 6h298l175-266h-230zm196-1281h268l-131 515h-6z"/><glyph unicode="Á" horiz-adv-x="1134" d="M16 0l410 1456h296l409-1456h-287l-79 309h-384l-78-309h-287zm413 1560l176 266h299l3-6-249-260h-229zm10-1022h268l-131 515h-6z"/><glyph unicode="Â" horiz-adv-x="1134" d="M16 0l410 1456h296l409-1456h-287l-79 309h-384l-78-309h-287zm228 1591v25l250 237h159l256-240v-22h-222l-114 134-112-134h-217zm195-1053h268l-131 515h-6z"/><glyph unicode="Ã" horiz-adv-x="1134" d="M16 0l410 1456h296l409-1456h-287l-79 309h-384l-78-309h-287zm232 1645q0 93 51.5 161t129.5 68q46 0 129.5-44t128.5-44q27 0 46.5 32.5t19.5 80.5l148-45q0-95-51-161.5t-130-66.5q-59 0-136.5 44t-121.5 44q-27 0-46-33t-19-79zm191-1107h268l-131 515h-6z"/><glyph unicode="Ä" horiz-adv-x="1134" d="M16 0l410 1456h296l409-1456h-287l-79 309h-384l-78-309h-287zm208 1606v198h251v-198h-251zm215-1068h268l-131 515h-6zm234 1068v198h250v-198h-250z"/><glyph unicode="Å" horiz-adv-x="1134" d="M16 0l410 1456h296l409-1456h-287l-79 309h-384l-78-309h-287zm365 1739q0 80 56 135t138 55q80 0 135-55t55-135q0-82-54.5-134t-135.5-52q-82 0-138 52.5t-56 133.5zm58-1201h268l-131 515h-6zm50 1201q0-42 24-68.5t62-26.5q37 0 60 26t23 69-23 70-60 27q-38 0-62-27t-24-70z"/><glyph unicode="Æ" horiz-adv-x="1656" d="M9 0l639 1456h891v-231h-481l12-363h400v-230h-392l15-402h498v-230h-774l-12 339h-329l-136-339h-331zm564 578h224l-17 497-6 1z"/><glyph unicode="Ç" horiz-adv-x="1088" d="M74 510v435q0 253 130.5 392.5t349.5 139.5q232 0 350.5-124t122.5-367l-3-6h-274q6 143-39 206t-157 63q-96 0-147-75t-51-227v-437q0-154 54.5-229t159.5-75q103 0 143.5 59.5t35.5 203.5h274l3-6q2-240-114-362t-342-122-361 138.5-135 392.5zm340-644l27 141h213l-9-59q51-11 86.5-52.5t35.5-120.5q0-108-80.5-172.5t-227.5-64.5l-6 163q34 0 53.5 20.5t19.5 63.5q0 42-25.5 59t-86.5 22z"/><glyph unicode="È" horiz-adv-x="1008" d="M110 0v1456h858v-228h-573v-362h489v-227h-489v-412h575v-227h-860zm73 1819l3 6h298l175-266h-230z"/><glyph unicode="É" horiz-adv-x="1008" d="M110 0v1456h858v-228h-573v-362h489v-227h-489v-412h575v-227h-860zm259 1560l176 266h299l3-6-249-260h-229z"/><glyph unicode="Ê" horiz-adv-x="1008" d="M110 0v1456h858v-228h-573v-362h489v-227h-489v-412h575v-227h-860zm74 1591v25l250 237h159l256-240v-22h-222l-114 134-112-134h-217z"/><glyph unicode="Ë" horiz-adv-x="1008" d="M110 0v1456h858v-228h-573v-362h489v-227h-489v-412h575v-227h-860zm54 1606v198h251v-198h-251zm449 0v198h250v-198h-250z"/><glyph unicode="Ì" horiz-adv-x="534" d="M-61 1819l3 6h298l175-266h-230zm186-1819v1456h283v-1456h-283z"/><glyph unicode="Í" horiz-adv-x="534" d="M123 1560l176 266h299l3-6-249-260h-229zm2-1560v1456h283v-1456h-283z"/><glyph unicode="Î" horiz-adv-x="534" d="M-60 1591v25l250 237h159l256-240v-22h-222l-114 134-112-134h-217zm185-1591v1456h283v-1456h-283z"/><glyph unicode="Ï" horiz-adv-x="534" d="M-80 1606v198h251v-198h-251zm205-1606v1456h283v-1456h-283zm244 1606v198h250v-198h-250z"/><glyph unicode="Ð" horiz-adv-x="1181" d="M31 655v175h109v626h440q224 0 370-169.5t146-436.5v-245q0-267-146-436t-370-169h-440v655h-109zm394-428h139q119 0 183.5 103.5t64.5 274.5v247q0 170-64.5 273t-183.5 103h-139v-398h187v-175h-187v-428z"/><glyph unicode="Ñ" horiz-adv-x="1241" d="M110 0v1456h285l445-930 6 2v928h283v-1456h-283l-445 931-6-2v-929h-285zm184 1645q0 93 51.5 161t129.5 68q46 0 129.5-44t128.5-44q27 0 46.5 32.5t19.5 80.5l148-45q0-95-51-161.5t-130-66.5q-59 0-136.5 44t-121.5 44q-27 0-46-33t-19-79z"/><glyph unicode="Ò" horiz-adv-x="1166" d="M75 523v408q0 255 138 400.5t368 145.5 370-145.5 140-400.5v-408q0-256-139-400t-370-144-369 144-138 400zm178 1317l3 6h298l175-266h-230zm104-1317q0-158 57-237t168-79q110 0 168 79t58 237v410q0 156-58 235.5t-169 79.5q-112 0-168-79t-56-236v-410z"/><glyph unicode="Ó" horiz-adv-x="1166" d="M75 523v408q0 255 138 400.5t368 145.5 370-145.5 140-400.5v-408q0-256-139-400t-370-144-369 144-138 400zm282 0q0-158 57-237t168-79q110 0 168 79t58 237v410q0 156-58 235.5t-169 79.5q-112 0-168-79t-56-236v-410zm82 1058l176 266h299l3-6-249-260h-229z"/><glyph unicode="Ô" horiz-adv-x="1166" d="M75 523v408q0 255 138 400.5t368 145.5 370-145.5 140-400.5v-408q0-256-139-400t-370-144-369 144-138 400zm179 1089v25l250 237h159l256-240v-22h-222l-114 134-112-134h-217zm103-1089q0-158 57-237t168-79q110 0 168 79t58 237v410q0 156-58 235.5t-169 79.5q-112 0-168-79t-56-236v-410z"/><glyph unicode="Õ" horiz-adv-x="1166" d="M75 523v408q0 255 138 400.5t368 145.5 370-145.5 140-400.5v-408q0-256-139-400t-370-144-369 144-138 400zm183 1143q0 93 51.5 161t129.5 68q46 0 129.5-44t128.5-44q27 0 46.5 32.5t19.5 80.5l148-45q0-95-51-161.5t-130-66.5q-59 0-136.5 44t-121.5 44q-27 0-46-33t-19-79zm99-1143q0-158 57-237t168-79q110 0 168 79t58 237v410q0 156-58 235.5t-169 79.5q-112 0-168-79t-56-236v-410z"/><glyph unicode="Ö" horiz-adv-x="1166" d="M75 523v408q0 255 138 400.5t368 145.5 370-145.5 140-400.5v-408q0-256-139-400t-370-144-369 144-138 400zm159 1104v198h251v-198h-251zm123-1104q0-158 57-237t168-79q110 0 168 79t58 237v410q0 156-58 235.5t-169 79.5q-112 0-168-79t-56-236v-410zm326 1104v198h250v-198h-250z"/><glyph unicode="×" horiz-adv-x="978" d="M57 1000l167 163 262-302 262 302 166-163-275-316 274-315-167-163-261 300-260-300-165 163 272 314z"/><glyph unicode="Ø" horiz-adv-x="1215" d="M81 523v408q0 255 138 400.5t368 145.5q90 0 168.5-24t141.5-69l65 132h129l-106-216q54-71 83-164t29-205v-408q0-256-139-400t-370-144q-63 0-120.5 11t-107.5 34l-57-117h-127l86 176q-87 70-134 181.5t-47 258.5zm282 0q0-54 6-97.5t19-70.5l6-1 382 781q-28 56-75.5 84.5t-113.5 28.5q-112 0-168-79t-56-236v-410zm103-282q24-18 54.5-26t67.5-8q110 0 168 79t58 237v414l-6 1z"/><glyph unicode="Ù" horiz-adv-x="1176" d="M94 465v991h284v-991q0-133 55-196t155-63q103 0 157 60t54 199v991h283v-991q0-233-136.5-359.5t-357.5-126.5-357.5 127-136.5 359zm162 1354l3 6h298l175-266h-230z"/><glyph unicode="Ú" horiz-adv-x="1176" d="M94 465v991h284v-991q0-133 55-196t155-63q103 0 157 60t54 199v991h283v-991q0-233-136.5-359.5t-357.5-126.5-357.5 127-136.5 359zm348 1095l176 266h299l3-6-249-260h-229z"/><glyph unicode="Û" horiz-adv-x="1176" d="M94 465v991h284v-991q0-133 55-196t155-63q103 0 157 60t54 199v991h283v-991q0-233-136.5-359.5t-357.5-126.5-357.5 127-136.5 359zm163 1126v25l250 237h159l256-240v-22h-222l-114 134-112-134h-217z"/><glyph unicode="Ü" horiz-adv-x="1176" d="M94 465v991h284v-991q0-133 55-196t155-63q103 0 157 60t54 199v991h283v-991q0-233-136.5-359.5t-357.5-126.5-357.5 127-136.5 359zm143 1141v198h251v-198h-251zm449 0v198h250v-198h-250z"/><glyph unicode="Ý" horiz-adv-x="1124" d="M7 1456h311l240-624h6l243 624h309l-416-938v-518h-284v536zm418 103l176 266h299l3-6-249-260h-229z"/><glyph unicode="Þ" horiz-adv-x="1079" d="M108 0v1456h285v-268h165q223 0 346.5-124t123.5-326q0-203-123.5-326.5t-346.5-123.5h-165v-288h-285zm285 515h165q94 0 139.5 63t45.5 158q0 96-46 160.5t-139 64.5h-163l-2 2v-448z"/><glyph unicode="ß" horiz-adv-x="1132" d="M119 0v1104q0 223 114 344t315 121q161 0 268-96t107-269q0-105-42.5-200.5t-42.5-168.5q0-53 118.5-194t118.5-282q0-192-98.5-286t-296.5-94q-66 0-131 15t-98 40l50 224q32-23 77-38t100-15q53 0 84 38t31 105q0 71-120 203.5t-120 272.5q0 94 44 192t44 174q0 63-35.5 108t-80.5 45q-54 0-88.5-65.5t-34.5-177.5v-1100h-283z"/><glyph unicode="à" horiz-adv-x="944" d="M57 302q0 159 102.5 247t304.5 88h107v88q0 79-28.5 121.5t-85.5 42.5q-48 0-72-34t-24-99l-275 1-3 6q-5 141 104.5 240t288.5 99q169 0 274.5-98.5t105.5-280.5v-438q0-80 11-149t34-136h-282q-12 27-21.5 59t-14.5 65q-40-66-97.5-105.5t-133.5-39.5q-134 0-214.5 88t-80.5 235zm79 1195l3 6h298l175-266h-230zm205-1182q0-54 25-88t68-34 79.5 23 57.5 59v199h-107q-65 0-94-45t-29-114z"/><glyph unicode="á" horiz-adv-x="944" d="M57 302q0 159 102.5 247t304.5 88h107v88q0 79-28.5 121.5t-85.5 42.5q-48 0-72-34t-24-99l-275 1-3 6q-5 141 104.5 240t288.5 99q169 0 274.5-98.5t105.5-280.5v-438q0-80 11-149t34-136h-282q-12 27-21.5 59t-14.5 65q-40-66-97.5-105.5t-133.5-39.5q-134 0-214.5 88t-80.5 235zm265 936l176 266h299l3-6-249-260h-229zm19-923q0-54 25-88t68-34 79.5 23 57.5 59v199h-107q-65 0-94-45t-29-114z"/><glyph unicode="â" horiz-adv-x="944" d="M57 302q0 159 102.5 247t304.5 88h107v88q0 79-28.5 121.5t-85.5 42.5q-48 0-72-34t-24-99l-275 1-3 6q-5 141 104.5 240t288.5 99q169 0 274.5-98.5t105.5-280.5v-438q0-80 11-149t34-136h-282q-12 27-21.5 59t-14.5 65q-40-66-97.5-105.5t-133.5-39.5q-134 0-214.5 88t-80.5 235zm80 967v25l250 237h159l256-240v-22h-222l-114 134-112-134h-217zm204-954q0-54 25-88t68-34 79.5 23 57.5 59v199h-107q-65 0-94-45t-29-114z"/><glyph unicode="ã" horiz-adv-x="944" d="M57 302q0 159 102.5 247t304.5 88h107v88q0 79-28.5 121.5t-85.5 42.5q-48 0-72-34t-24-99l-275 1-3 6q-5 141 104.5 240t288.5 99q169 0 274.5-98.5t105.5-280.5v-438q0-80 11-149t34-136h-282q-12 27-21.5 59t-14.5 65q-40-66-97.5-105.5t-133.5-39.5q-134 0-214.5 88t-80.5 235zm84 1021q0 93 51.5 161t129.5 68q46 0 129.5-44t128.5-44q27 0 46.5 32.5t19.5 80.5l148-45q0-95-51-161.5t-130-66.5q-59 0-136.5 44t-121.5 44q-27 0-46-33t-19-79zm200-1008q0-54 25-88t68-34 79.5 23 57.5 59v199h-107q-65 0-94-45t-29-114z"/><glyph unicode="ä" horiz-adv-x="944" d="M57 302q0 159 102.5 247t304.5 88h107v88q0 79-28.5 121.5t-85.5 42.5q-48 0-72-34t-24-99l-275 1-3 6q-5 141 104.5 240t288.5 99q169 0 274.5-98.5t105.5-280.5v-438q0-80 11-149t34-136h-282q-12 27-21.5 59t-14.5 65q-40-66-97.5-105.5t-133.5-39.5q-134 0-214.5 88t-80.5 235zm62 982v198h251v-198h-251zm222-969q0-54 25-88t68-34 79.5 23 57.5 59v199h-107q-65 0-94-45t-29-114zm227 969v198h250v-198h-250z"/><glyph unicode="å" horiz-adv-x="944" d="M57 302q0 159 102.5 247t304.5 88h107v88q0 79-28.5 121.5t-85.5 42.5q-48 0-72-34t-24-99l-275 1-3 6q-5 141 104.5 240t288.5 99q169 0 274.5-98.5t105.5-280.5v-438q0-80 11-149t34-136h-282q-12 27-21.5 59t-14.5 65q-40-66-97.5-105.5t-133.5-39.5q-134 0-214.5 88t-80.5 235zm217 1115q0 80 56 135t138 55q80 0 135-55t55-135q0-82-54.5-134t-135.5-52q-82 0-138 52.5t-56 133.5zm67-1102q0-54 25-88t68-34 79.5 23 57.5 59v199h-107q-65 0-94-45t-29-114zm41 1102q0-42 24-68.5t62-26.5q37 0 60 26t23 69-23 70-60 27q-38 0-62-27t-24-70z"/><glyph unicode="æ" horiz-adv-x="1479" d="M41 317q0 159 110.5 245.5t322.5 86.5h136v56q0 79-30 124t-83 45q-57 0-89.5-37t-32.5-92l-275 17-2 6q-5 145 106.5 239.5t295.5 94.5q83 0 153-23.5t121-68.5q51 44 118 68t149 24q181 0 285-131t104-356v-160h-535q5-117 51.5-183t144.5-66q77 0 127.5 18.5t115.5 59.5l71-183q-53-49-147.5-85.5t-200.5-36.5q-108 0-192 38t-142 110q-52-65-135.5-106.5t-196.5-41.5q-168 0-259 90.5t-91 247.5zm283-4q0-61 30-95t92-34q41 0 88 27t76 65v190h-134q-71 0-111.5-44.5t-40.5-108.5zm572 331h257v27q0 94-28 148.5t-84 54.5q-73 0-106-60t-39-170z"/><glyph unicode="ç" horiz-adv-x="910" d="M52 470v139q0 216 112 354.5t321 138.5q176 0 279.5-113t100.5-305l-2-5h-259q0 88-29.5 141.5t-89.5 53.5q-85 0-117-72t-32-193v-139q0-124 32-194t119-70q58 0 87.5 43t29.5 124h258l3-6q3-170-104.5-279t-273.5-109q-210 0-322.5 137t-112.5 354zm294-604l27 141h213l-9-59q51-11 86.5-52.5t35.5-120.5q0-108-80.5-172.5t-227.5-64.5l-6 163q34 0 53.5 20.5t19.5 63.5q0 42-25.5 59t-86.5 22z"/><glyph unicode="è" horiz-adv-x="938" d="M69 451v152q0 219 111.5 359t308.5 140q190 0 294-127t104-346v-174h-535v-4q0-107 48.5-176t146.5-69q80 0 130 18t119 60l72-181q-56-54-149.5-89t-205.5-35q-204 0-324 134t-120 338zm66 1047l3 6h298l175-266h-230zm218-853h255v40q0 90-28 139.5t-91 49.5q-68 0-100-62t-36-167z"/><glyph unicode="é" horiz-adv-x="938" d="M69 451v152q0 219 111.5 359t308.5 140q190 0 294-127t104-346v-174h-535v-4q0-107 48.5-176t146.5-69q80 0 130 18t119 60l72-181q-56-54-149.5-89t-205.5-35q-204 0-324 134t-120 338zm252 788l176 266h299l3-6-249-260h-229zm32-594h255v40q0 90-28 139.5t-91 49.5q-68 0-100-62t-36-167z"/><glyph unicode="ê" horiz-adv-x="938" d="M69 451v152q0 219 111.5 359t308.5 140q190 0 294-127t104-346v-174h-535v-4q0-107 48.5-176t146.5-69q80 0 130 18t119 60l72-181q-56-54-149.5-89t-205.5-35q-204 0-324 134t-120 338zm67 819v25l250 237h159l256-240v-22h-222l-114 134-112-134h-217zm217-625h255v40q0 90-28 139.5t-91 49.5q-68 0-100-62t-36-167z"/><glyph unicode="ë" horiz-adv-x="938" d="M69 451v152q0 219 111.5 359t308.5 140q190 0 294-127t104-346v-174h-535v-4q0-107 48.5-176t146.5-69q80 0 130 18t119 60l72-181q-56-54-149.5-89t-205.5-35q-204 0-324 134t-120 338zm49 834v198h251v-198h-251zm235-640h255v40q0 90-28 139.5t-91 49.5q-68 0-100-62t-36-167zm214 640v198h250v-198h-250z"/><glyph unicode="ì" horiz-adv-x="513" d="M-73 1476l3 6h298l175-266h-230zm186-1476v1082h285v-1082h-285z"/><glyph unicode="í" horiz-adv-x="513" d="M111 1217l176 266h299l3-6-249-260h-229zm2-1217v1082h285v-1082h-285z"/><glyph unicode="î" horiz-adv-x="513" d="M-72 1250v25l250 237h159l256-240v-22h-222l-114 134-112-134h-217zm185-1250v1082h285v-1082h-285z"/><glyph unicode="ï" horiz-adv-x="513" d="M-92 1263v198h251v-198h-251zm205-1263v1082h285v-1082h-285zm244 1263v198h250v-198h-250z"/><glyph unicode="ð" horiz-adv-x="1053" d="M38 466q0 227 113.5 362t313.5 135q59 0 112.5-19t93.5-52l4 4q-17 69-47 130.5t-71 111.5l-181-119-72 111 155 101q-30 21-62 38t-65 31l89 217q72-21 138.5-56t125.5-83l173 112 70-110-147-96q98-117 152.5-274.5t54.5-345.5v-71q0-270-137.5-442t-342.5-172q-208 0-339 139.5t-131 347.5zm284 0q0-111 51.5-185.5t137.5-74.5q90 0 141 108t51 279v70q-28 38-76.5 62.5t-111.5 24.5q-93 0-143-77.5t-50-206.5z"/><glyph unicode="ñ" d="M87 0v1082h265l12-149q45 80 110.5 124.5t144.5 44.5q135 0 212.5-104t77.5-327v-671h-285v671q0 112-31.5 157.5t-97.5 45.5q-38 0-70-20t-54-55v-799h-284zm83 1323q0 93 51.5 161t129.5 68q46 0 129.5-44t128.5-44q27 0 46.5 32.5t19.5 80.5l148-45q0-95-51-161.5t-130-66.5q-59 0-136.5 44t-121.5 44q-27 0-46-33t-19-79z"/><glyph unicode="ò" d="M58 473v134q0 218 115.5 356.5t323.5 138.5 324-138.5 116-356.5v-134q0-220-116-357t-323-137q-209 0-324.5 137t-115.5 357zm107 1024l3 6h298l175-266h-230zm176-1024q0-125 35-196t122-71q84 0 119.5 71.5t35.5 195.5v134q0 122-35.5 194.5t-120.5 72.5-120.5-73-35.5-194v-134z"/><glyph unicode="ó" d="M58 473v134q0 218 115.5 356.5t323.5 138.5 324-138.5 116-356.5v-134q0-220-116-357t-323-137q-209 0-324.5 137t-115.5 357zm283 0q0-125 35-196t122-71q84 0 119.5 71.5t35.5 195.5v134q0 122-35.5 194.5t-120.5 72.5-120.5-73-35.5-194v-134zm10 765l176 266h299l3-6-249-260h-229z"/><glyph unicode="ô" d="M58 473v134q0 218 115.5 356.5t323.5 138.5 324-138.5 116-356.5v-134q0-220-116-357t-323-137q-209 0-324.5 137t-115.5 357zm108 796v25l250 237h159l256-240v-22h-222l-114 134-112-134h-217zm175-796q0-125 35-196t122-71q84 0 119.5 71.5t35.5 195.5v134q0 122-35.5 194.5t-120.5 72.5-120.5-73-35.5-194v-134z"/><glyph unicode="õ" d="M58 473v134q0 218 115.5 356.5t323.5 138.5 324-138.5 116-356.5v-134q0-220-116-357t-323-137q-209 0-324.5 137t-115.5 357zm112 850q0 93 51.5 161t129.5 68q46 0 129.5-44t128.5-44q27 0 46.5 32.5t19.5 80.5l148-45q0-95-51-161.5t-130-66.5q-59 0-136.5 44t-121.5 44q-27 0-46-33t-19-79zm171-850q0-125 35-196t122-71q84 0 119.5 71.5t35.5 195.5v134q0 122-35.5 194.5t-120.5 72.5-120.5-73-35.5-194v-134z"/><glyph unicode="ö" d="M58 473v134q0 218 115.5 356.5t323.5 138.5 324-138.5 116-356.5v-134q0-220-116-357t-323-137q-209 0-324.5 137t-115.5 357zm88 811v198h251v-198h-251zm195-811q0-125 35-196t122-71q84 0 119.5 71.5t35.5 195.5v134q0 122-35.5 194.5t-120.5 72.5-120.5-73-35.5-194v-134zm254 811v198h250v-198h-250z"/><glyph unicode="÷" horiz-adv-x="1005" d="M59 577v221h878v-221h-878zm298-410v230h281v-230h-281zm0 804v230h281v-230h-281z"/><glyph unicode="ø" horiz-adv-x="997" d="M58 473v134q0 218 115.5 356.5t323.5 138.5q40 0 78-6t73-17l57 138h152l-85-206q80-66 122.5-170.5t42.5-233.5v-134q0-220-116-357t-323-137q-40 0-75.5 5.5t-68.5 14.5l-58-142h-151l85 206q-85 64-128.5 170t-43.5 240zm283 0q0-35 1.5-62t6.5-43l6-1 203 494q-14 6-29.5 9.5t-31.5 3.5q-85 0-120.5-73t-35.5-194v-134zm103-258q12-5 25-7t29-2q84 0 119.5 71.5t35.5 195.5v134q0 27-2 49.5t-4 36.5l-6 1z"/><glyph unicode="ù" d="M85 428v654h284v-656q0-115 28-167t83-52q47 0 82.5 17.5t60.5 51.5v806h285v-1082h-250l-17 125q-44-71-106.5-108.5t-141.5-37.5q-145 0-226.5 109.5t-81.5 339.5zm78 1048l3 6h298l175-266h-230z"/><glyph unicode="ú" d="M85 428v654h284v-656q0-115 28-167t83-52q47 0 82.5 17.5t60.5 51.5v806h285v-1082h-250l-17 125q-44-71-106.5-108.5t-141.5-37.5q-145 0-226.5 109.5t-81.5 339.5zm264 789l176 266h299l3-6-249-260h-229z"/><glyph unicode="û" d="M85 428v654h284v-656q0-115 28-167t83-52q47 0 82.5 17.5t60.5 51.5v806h285v-1082h-250l-17 125q-44-71-106.5-108.5t-141.5-37.5q-145 0-226.5 109.5t-81.5 339.5zm79 822v25l250 237h159l256-240v-22h-222l-114 134-112-134h-217z"/><glyph unicode="ü" d="M85 428v654h284v-656q0-115 28-167t83-52q47 0 82.5 17.5t60.5 51.5v806h285v-1082h-250l-17 125q-44-71-106.5-108.5t-141.5-37.5q-145 0-226.5 109.5t-81.5 339.5zm59 835v198h251v-198h-251zm449 0v198h250v-198h-250z"/><glyph unicode="ý" horiz-adv-x="909" d="M5 1082h305l130-638 2-11 158 649h304l-365-1245q-41-117-109.5-195.5t-209.5-78.5q-35 0-62 6t-72 18l33 212q17-3 24.5-4.5t16.5-1.5q62 0 93.5 32.5t45.5 85.5l25 80zm302 135l176 266h299l3-6-249-260h-229z"/><glyph unicode="þ" horiz-adv-x="999" d="M93-416v1976h284v-570q38 54 89 83t116 29q171 0 265-140.5t94-370.5v-133q0-216-94-347.5t-263-131.5q-66 0-117.5 26.5t-89.5 78.5v-500h-284zm284 693q20-35 52.5-53t79.5-18q79 0 113.5 67t34.5 185v133q0 128-36 205.5t-113 77.5q-45 0-78-22.5t-53-63.5v-511z"/><glyph unicode="ÿ" horiz-adv-x="909" d="M5 1082h305l130-638 2-11 158 649h304l-365-1245q-41-117-109.5-195.5t-209.5-78.5q-35 0-62 6t-72 18l33 212q17-3 24.5-4.5t16.5-1.5q62 0 93.5 32.5t45.5 85.5l25 80zm99 181v198h251v-198h-251zm449 0v198h250v-198h-250z"/><glyph unicode="Œ" horiz-adv-x="1709" d="M87 576v304q0 265 146 431t382 166q57 0 116.5-6t124.5-15h781v-228h-573v-362h489v-227h-489v-412h575v-227h-783q-76-10-130.5-15.5t-109.5-5.5q-235 0-382 166t-147 431zm284 0q0-179 65-274.5t180-95.5q41 0 82 3t81 10v1018q-41 6-82 9.5t-82 3.5q-116 0-180-95t-64-273v-306z"/><glyph unicode="œ" horiz-adv-x="1571" d="M75 529v22q0 244 115 397.5t323 153.5q92 0 168-32.5t132-92.5q53 60 125 92.5t160 32.5q190 0 294-130.5t104-355.5v-161h-532q8-111 56.5-180t135.5-69q80 0 131 18t119 60l73-181q-57-54-151-89t-206-35q-94 0-171.5 33t-134.5 95q-56-63-132-95.5t-170-32.5q-209 0-324 152.5t-115 397.5zm284 0q0-150 34.5-236t117.5-81h6q82-5 117 81.5t35 235.5v22q0 146-35.5 233.5t-117.5 83.5h-6q-82 4-116.5-83.5t-34.5-233.5v-22zm606 116h253v27q0 95-28.5 148.5t-91.5 53.5q-61 0-93-61.5t-40-167.5z"/><glyph unicode="Ÿ" horiz-adv-x="1124" d="M7 1456h311l240-624h6l243 624h309l-416-938v-518h-284v536zm213 149v198h251v-198h-251zm449 0v198h250v-198h-250z"/><glyph unicode="ˆ" horiz-adv-x="902" d="M118 1252v25l250 237h159l256-240v-22h-222l-114 134-112-134h-217z"/><glyph unicode="˜" horiz-adv-x="867" d="M110 1272q0 93 51.5 161t129.5 68q46 0 129.5-44t128.5-44q27 0 46.5 32.5t19.5 80.5l148-45q0-95-51-161.5t-130-66.5q-59 0-136.5 44t-121.5 44q-27 0-46-33t-19-79z"/><glyph horiz-adv-x="964"/><glyph horiz-adv-x="1929"/><glyph horiz-adv-x="964"/><glyph horiz-adv-x="1929"/><glyph horiz-adv-x="643"/><glyph horiz-adv-x="482"/><glyph horiz-adv-x="321"/><glyph horiz-adv-x="321"/><glyph horiz-adv-x="241"/><glyph horiz-adv-x="385"/><glyph horiz-adv-x="107"/><glyph unicode="‐" horiz-adv-x="748" d="M120 511v228h497v-228h-497z"/><glyph unicode="‑" horiz-adv-x="748" d="M120 511v228h497v-228h-497z"/><glyph unicode="‒" horiz-adv-x="748" d="M120 511v228h497v-228h-497z"/><glyph unicode="–" horiz-adv-x="1212" d="M147 600v230h917v-230h-917z"/><glyph unicode="—" horiz-adv-x="1430" d="M123 600v230h1128v-230h-1128z"/><glyph unicode="‘" horiz-adv-x="366" d="M41 1023v191l146 346h137l-50-342v-195h-233z"/><glyph unicode="’" horiz-adv-x="366" d="M49 1024l49 344v192h234v-192l-146-344h-137z"/><glyph unicode="‚" horiz-adv-x="367" d="M41-257l52 267v285h234v-271l-132-281h-154z"/><glyph unicode="“" horiz-adv-x="667" d="M41 1023v191l146 346h137l-50-342v-195h-233zm301 0v191l146 346h137l-50-342v-195h-233z"/><glyph unicode="”" horiz-adv-x="675" d="M43 1024l49 344v192h234v-192l-146-344h-137zm307 0l49 344v192h234v-192l-146-344h-137z"/><glyph unicode="„" horiz-adv-x="661" d="M41-217l52 254v263h217v-251l-148-266h-121zm309 0l52 261v256h217v-251l-148-266h-121z"/><glyph unicode="•" horiz-adv-x="680" d="M126 710v96q0 100 59.5 164t158.5 64q101 0 161-63.5t60-164.5v-96q0-101-59.5-163t-159.5-62-160 62.5-60 162.5z"/><glyph unicode="…" horiz-adv-x="1347" d="M129 0v258h281v-258h-281zm414 0v258h281v-258h-281zm409 0v258h281v-258h-281z"/><glyph horiz-adv-x="385"/><glyph unicode="‹" horiz-adv-x="563" d="M99 541v19l233 389h176l-195-399 195-397h-176z"/><glyph unicode="›" horiz-adv-x="541" d="M72 152l195 398-195 399h176l233-389v-19l-233-389h-176z"/><glyph horiz-adv-x="482"/><glyph unicode="€" horiz-adv-x="970" d="M65 453v200h121v117h-121v200h121v16q0 204 130 347.5t342 143.5q51 0 100.5-8t107.5-23l-20-232q-45 16-92.5 25.5t-95.5 9.5q-89 0-138.5-78.5t-49.5-182.5v-18h336v-200h-336v-117h336v-200h-336v-12q0-97 49.5-166t139.5-69q48 0 95.5 8t91.5 25l20-229q-50-15-102-23t-105-8q-212 0-342.5 134.5t-130.5 327.5v12h-121z"/><glyph unicode="™" horiz-adv-x="1116" d="M89 1350v106h340v-106h-104v-433h-137v433h-99zm398-436v542h149l89-360h6l89 360h143v-542h-120v251h-6l-76-251h-67l-80 266-6-1v-265h-121z"/><glyph unicode="" horiz-adv-x="1080" d="M0 0v1080h1080v-1080h-1080z"/><glyph unicode="ﬂ" horiz-adv-x="1142" d="M23 876v206h133v120q0 182 94 280.5t264 98.5q33 0 66-5.5t76-15.5l-24-218q-20 4-38.5 7t-43.5 3q-54 0-82-39t-28-111v-120h174v-206h-174v-876h-284v876h-133zm729-876v1560h284v-1560h-284z"/><glyph unicode="ﬃ" horiz-adv-x="1754" d="M23 876v206h133v120q0 182 94 280.5t264 98.5q33 0 66-5.5t76-15.5l-24-218q-20 4-38.5 7t-43.5 3q-54 0-82-39t-28-111v-120h174v-206h-174v-876h-284v876h-133zm642 0v206h133v70q0 207 112 318t316 111q70 0 138.5-15t153.5-44l-40-232q-65 22-115.5 34t-118.5 12q-80 0-121-47t-41-137v-70h173v-206h-173v-876h-284v876h-133zm698-876v1082h285v-1082h-285z"/><glyph unicode="ﬄ" horiz-adv-x="1789" d="M23 876v206h133v120q0 182 94 280.5t264 98.5q33 0 66-5.5t76-15.5l-24-218q-20 4-38.5 7t-43.5 3q-54 0-82-39t-28-111v-120h174v-206h-174v-876h-284v876h-133zm647 0v206h133v120q0 182 94 280.5t264 98.5q33 0 66-5.5t76-15.5l-24-218q-20 4-38.5 7t-43.5 3q-54 0-82-39t-28-111v-120h174v-206h-174v-876h-284v876h-133zm729-876v1560h284v-1560h-284z"/></font>
</defs>
</svg>
