<svg fill="#fff" height="48" viewBox="0 0 24 24" width="48" xmlns="http://www.w3.org/2000/svg"><path d="M16.5 12c0-1.77-1.02-3.29-2.5-4.03v2.21l2.45 2.45c.03-.2.05-.41.05-.63zm2.5 0c0 .94-.2 1.82-.54 2.64l1.51 1.51c.66-1.24 1.03-2.65 1.03-4.15 0-4.28-2.99-7.86-7-8.77v2.06c2.89.86 5 3.54 5 6.71zm-14.73-9l-1.27 1.27 4.73 4.73h-4.73v6h4l5 5v-6.73l4.25 4.25c-.67.52-1.42.93-2.25 1.18v2.06c1.38-.31 2.63-.95 3.69-1.81l2.04 2.05 1.27-1.27-9-9-7.73-7.73zm7.73 1l-2.09 2.09 2.09 2.09v-4.18z"/><path d="M0 0h24v24h-24z" fill="none"/></svg>